# xmcd
#
# Track frame offsets:
#	150
#	11752
#	26476
#	40108
#	53010
#	64644
#	77529
#	90083
#	96668
#	109472
#	119260
#	132875
#	147099
#	159867
#	174864
#	186673
#	197720
#	207843
#
# Disc length: 2939 seconds
# Revision: 2
# Processed by: cddbd v1.5.2PL0 Copyright (c) Steve Scherf et al.
# Submitted via: dBpowerAMP V12.0
#
DISCID=ea0b7912
DTITLE=Various Artist - American Country Legends, Disc 3
DYEAR=2005
DGENRE=Country
TTITLE0=Patsy Cline - Walkin' After Midnight
TTITLE1=Don Gibson - I Can't Stop Loving You
TTITLE2=Kenny Rogers - Ruby, Don't Take Your Love To Town
TTITLE3=Lynn Anderson - Rose Garden
TTITLE4=Joe Giltrap - Time In A Bottle
TTITLE5=Freddy Fender - Silver Wings
TTITLE6=Jo Anne Houston - Blue Blue Day
TTITLE7=Jim Reeves - Have I Told You Lately That I Love You*
TTITLE8=Charley Pride - Crystal Chandeliers*
TTITLE9=Barbara Mandrell - Release Me*
TTITLE10=Tammy Wynete - Stand By Your Man*
TTITLE11=Lost Angels - (Christines's Tune) Devil In Disguise
TTITLE12=Johnny Cash - Ring Of Fire*
TTITLE13=Narvel Felts - Everything Is Beautiful
TTITLE14=Roger Miller - Little Green Apples
TTITLE15=George Jones - Tender Years
TTITLE16=Brenda Lee - I'm Sorry*
TTITLE17=Willie Nelson - Shelter Of Your Arms
EXTD=
EXTT0=
EXTT1=
EXTT2=
EXTT3=
EXTT4=
EXTT5=
EXTT6=
EXTT7=
EXTT8=
EXTT9=
EXTT10=
EXTT11=
EXTT12=
EXTT13=
EXTT14=
EXTT15=
EXTT16=
EXTT17=
PLAYORDER=
